<svg xmlns="http://www.w3.org/2000/svg" xmlns:xlink="http://www.w3.org/1999/xlink" width="500" zoomAndPan="magnify" viewBox="0 0 375 374.999991" height="500" preserveAspectRatio="xMidYMid meet" version="1.0"><defs><g/><clipPath id="f1db7263e2"><path d="M 4.894531 60 L 106.894531 60 L 106.894531 206 L 4.894531 206 Z M 4.894531 60 " clip-rule="nonzero"/></clipPath><clipPath id="bcc61f5681"><path d="M 35.570312 117.25 L 76.820312 117.25 L 76.820312 191.5 L 35.570312 191.5 Z M 35.570312 117.25 " clip-rule="nonzero"/></clipPath></defs><g clip-path="url(#f1db7263e2)"><path fill="#ff004b" d="M 100.035156 97.175781 L 79.636719 97.175781 L 79.636719 82.554688 C 79.636719 82.027344 79.8125 73.039062 73.65625 66.523438 C 69.433594 62.46875 63.457031 60.179688 55.894531 60.179688 C 48.332031 60.179688 42.351562 62.292969 38.132812 66.699219 C 31.976562 73.214844 31.976562 82.027344 32.152344 82.730469 L 32.152344 97.351562 L 11.753906 97.351562 L 4.894531 205.703125 L 106.894531 205.703125 Z M 33.910156 97.175781 L 33.910156 82.378906 C 33.910156 81.320312 34.085938 73.394531 39.539062 67.929688 C 43.230469 64.054688 48.859375 61.941406 55.894531 61.941406 C 62.929688 61.941406 68.554688 63.878906 72.25 67.929688 C 77.699219 73.570312 77.875 81.320312 77.875 82.378906 L 77.875 97.175781 L 55.894531 97.175781 C 55.894531 97.175781 33.910156 97.175781 33.910156 97.175781 Z M 33.910156 97.175781 " fill-opacity="1" fill-rule="nonzero"/></g><g clip-path="url(#bcc61f5681)"><path fill="#1f1e1e" d="M 41.085938 117.261719 C 38.257812 117.261719 35.976562 119.988281 35.976562 123.375 L 35.976562 130.480469 C 35.746094 130.523438 35.574219 130.726562 35.574219 130.96875 L 35.574219 133.261719 C 35.574219 133.507812 35.746094 133.707031 35.976562 133.753906 L 35.976562 136.226562 C 35.746094 136.273438 35.574219 136.476562 35.574219 136.71875 L 35.574219 140.558594 C 35.574219 140.804688 35.746094 141.003906 35.976562 141.050781 L 35.976562 142.714844 C 35.746094 142.757812 35.574219 142.960938 35.574219 143.203125 L 35.574219 147.046875 C 35.574219 147.289062 35.746094 147.492188 35.976562 147.539062 L 35.976562 185.378906 C 35.976562 188.765625 38.257812 191.492188 41.085938 191.492188 L 71.109375 191.492188 C 73.941406 191.492188 76.222656 188.765625 76.222656 185.378906 L 76.222656 141.050781 C 76.253906 141.058594 76.285156 141.058594 76.320312 141.058594 C 76.597656 141.058594 76.824219 140.835938 76.824219 140.558594 L 76.824219 136.71875 C 76.824219 136.441406 76.597656 136.214844 76.320312 136.214844 C 76.285156 136.214844 76.253906 136.21875 76.222656 136.226562 L 76.222656 123.375 C 76.222656 119.988281 73.941406 117.261719 71.109375 117.261719 Z M 56.097656 118.796875 C 56.261719 118.796875 56.402344 118.855469 56.519531 118.96875 C 56.632812 119.085938 56.691406 119.222656 56.691406 119.386719 C 56.691406 119.546875 56.632812 119.6875 56.519531 119.800781 C 56.402344 119.917969 56.261719 119.972656 56.097656 119.972656 C 55.9375 119.972656 55.796875 119.917969 55.679688 119.800781 C 55.566406 119.6875 55.507812 119.546875 55.507812 119.386719 C 55.507812 119.222656 55.566406 119.085938 55.679688 118.96875 C 55.796875 118.855469 55.9375 118.796875 56.097656 118.796875 Z M 48.160156 121.15625 C 48.34375 121.15625 48.5 121.222656 48.628906 121.351562 C 48.757812 121.480469 48.824219 121.636719 48.824219 121.816406 C 48.824219 122 48.757812 122.15625 48.628906 122.285156 C 48.5 122.414062 48.34375 122.480469 48.160156 122.480469 C 47.972656 122.480469 47.816406 122.414062 47.6875 122.285156 C 47.558594 122.15625 47.492188 122 47.492188 121.816406 C 47.492188 121.636719 47.558594 121.480469 47.6875 121.351562 C 47.816406 121.222656 47.972656 121.15625 48.160156 121.15625 Z M 52.21875 121.527344 L 60.175781 121.527344 C 60.335938 121.527344 60.464844 121.691406 60.464844 121.894531 C 60.464844 122.097656 60.335938 122.261719 60.175781 122.261719 L 52.21875 122.261719 C 52.058594 122.261719 51.929688 122.097656 51.929688 121.894531 C 51.929688 121.691406 52.058594 121.527344 52.21875 121.527344 Z M 36.925781 125.589844 L 75.273438 125.589844 L 75.273438 183.164062 L 36.925781 183.164062 Z M 56.097656 184.5 C 56.488281 184.5 56.859375 184.574219 57.21875 184.71875 C 57.574219 184.867188 57.890625 185.078125 58.164062 185.347656 C 58.4375 185.621094 58.648438 185.933594 58.796875 186.292969 C 58.945312 186.648438 59.019531 187.015625 59.019531 187.402344 C 59.019531 187.785156 58.945312 188.15625 58.796875 188.511719 C 58.648438 188.867188 58.4375 189.183594 58.164062 189.453125 C 57.890625 189.726562 57.574219 189.9375 57.21875 190.082031 C 56.859375 190.230469 56.488281 190.304688 56.097656 190.304688 C 55.710938 190.304688 55.339844 190.230469 54.980469 190.082031 C 54.625 189.9375 54.308594 189.726562 54.035156 189.453125 C 53.761719 189.183594 53.550781 188.867188 53.402344 188.511719 C 53.253906 188.15625 53.179688 187.785156 53.179688 187.402344 C 53.179688 187.015625 53.253906 186.648438 53.402344 186.292969 C 53.550781 185.933594 53.761719 185.621094 54.035156 185.347656 C 54.308594 185.078125 54.625 184.867188 54.980469 184.71875 C 55.339844 184.574219 55.710938 184.5 56.097656 184.5 Z M 56.097656 184.5 " fill-opacity="1" fill-rule="nonzero"/></g><g fill="#e7dede" fill-opacity="1"><g transform="translate(116.270184, 173.213931)"><g><path d="M 17.5625 -37.625 C 22.375 -37.625 24.78125 -35.066406 24.78125 -29.953125 L 24.78125 -22.453125 C 24.78125 -17.328125 22.375 -14.765625 17.5625 -14.765625 L 10.984375 -14.765625 L 10.984375 0 L 2.84375 0 L 2.84375 -37.625 Z M 16.625 -21.515625 L 16.625 -30.875 C 16.625 -31.1875 16.519531 -31.457031 16.3125 -31.6875 C 16.101562 -31.925781 15.84375 -32.046875 15.53125 -32.046875 L 10.984375 -32.046875 L 10.984375 -20.359375 L 15.53125 -20.359375 C 15.84375 -20.359375 16.101562 -20.472656 16.3125 -20.703125 C 16.519531 -20.929688 16.625 -21.203125 16.625 -21.515625 Z M 16.625 -21.515625 "/></g></g></g><g fill="#e7dede" fill-opacity="1"><g transform="translate(142.203888, 173.213931)"><g><path d="M 11.046875 -14.765625 L 11.046875 0 L 2.90625 0 L 2.90625 -37.625 L 11.046875 -37.625 L 11.046875 -21.859375 L 17.5 -21.859375 L 17.5 -37.625 L 25.640625 -37.625 L 25.640625 0 L 17.5 0 L 17.5 -14.765625 Z M 11.046875 -14.765625 "/></g></g></g><g fill="#e7dede" fill-opacity="1"><g transform="translate(170.754212, 173.213931)"><g><path d="M 25.0625 -30.53125 L 25.0625 -7.09375 C 25.0625 -1.976562 22.660156 0.578125 17.859375 0.578125 L 10.125 0.578125 C 5.3125 0.578125 2.90625 -1.976562 2.90625 -7.09375 L 2.90625 -30.53125 C 2.90625 -35.644531 5.3125 -38.203125 10.125 -38.203125 L 17.859375 -38.203125 C 22.660156 -38.203125 25.0625 -35.644531 25.0625 -30.53125 Z M 16.921875 -6.171875 L 16.921875 -31.515625 C 16.921875 -31.828125 16.8125 -32.097656 16.59375 -32.328125 C 16.382812 -32.566406 16.125 -32.6875 15.8125 -32.6875 L 12.15625 -32.6875 C 11.84375 -32.6875 11.578125 -32.566406 11.359375 -32.328125 C 11.148438 -32.097656 11.046875 -31.828125 11.046875 -31.515625 L 11.046875 -6.171875 C 11.046875 -5.859375 11.148438 -5.582031 11.359375 -5.34375 C 11.578125 -5.113281 11.84375 -5 12.15625 -5 L 15.8125 -5 C 16.125 -5 16.382812 -5.113281 16.59375 -5.34375 C 16.8125 -5.582031 16.921875 -5.859375 16.921875 -6.171875 Z M 16.921875 -6.171875 "/></g></g></g><g fill="#e7dede" fill-opacity="1"><g transform="translate(198.897507, 173.213931)"><g><path d="M 24.484375 0 L 16.34375 0 L 16.34375 -31.234375 C 16.34375 -31.535156 16.234375 -31.800781 16.015625 -32.03125 C 15.804688 -32.269531 15.546875 -32.390625 15.234375 -32.390625 L 12.09375 -32.390625 C 11.78125 -32.390625 11.515625 -32.269531 11.296875 -32.03125 C 11.085938 -31.800781 10.984375 -31.535156 10.984375 -31.234375 L 10.984375 0 L 2.84375 0 L 2.84375 -30.53125 C 2.84375 -35.644531 5.25 -38.203125 10.0625 -38.203125 L 17.265625 -38.203125 C 22.078125 -38.203125 24.484375 -35.644531 24.484375 -30.53125 Z M 24.484375 0 "/></g></g></g><g fill="#e7dede" fill-opacity="1"><g transform="translate(225.936007, 173.213931)"><g><path d="M 11.046875 -6.75 L 20.0625 -6.75 L 20.0625 0 L 2.90625 0 L 2.90625 -37.625 L 20.0625 -37.625 L 20.0625 -31 L 11.046875 -31 L 11.046875 -22.15625 L 19.484375 -22.15625 L 19.484375 -15.765625 L 11.046875 -15.765625 Z M 11.046875 -6.75 "/></g></g></g><g fill="#e7dede" fill-opacity="1"><g transform="translate(247.799393, 173.213931)"><g><path d="M 11.046875 -6.859375 L 19.953125 -6.859375 L 19.953125 0 L 2.90625 0 L 2.90625 -37.625 L 11.046875 -37.625 Z M 11.046875 -6.859375 "/></g></g></g><g fill="#e7dede" fill-opacity="1"><g transform="translate(268.674272, 173.213931)"><g><path d="M 17.859375 -38.203125 C 22.660156 -38.203125 25.0625 -35.644531 25.0625 -30.53125 L 25.0625 0 L 16.921875 0 L 16.921875 -12.625 L 11.046875 -12.625 L 11.046875 0 L 2.90625 0 L 2.90625 -30.53125 C 2.90625 -35.644531 5.3125 -38.203125 10.125 -38.203125 Z M 11.046875 -18.90625 L 16.921875 -18.90625 L 16.921875 -31.515625 C 16.921875 -31.828125 16.8125 -32.097656 16.59375 -32.328125 C 16.382812 -32.566406 16.125 -32.6875 15.8125 -32.6875 L 12.15625 -32.6875 C 11.84375 -32.6875 11.578125 -32.566406 11.359375 -32.328125 C 11.148438 -32.097656 11.046875 -31.828125 11.046875 -31.515625 Z M 11.046875 -18.90625 "/></g></g></g><g fill="#e7dede" fill-opacity="1"><g transform="translate(296.875718, 173.213931)"><g><path d="M 24.484375 0 L 16.34375 0 L 16.34375 -31.234375 C 16.34375 -31.535156 16.234375 -31.800781 16.015625 -32.03125 C 15.804688 -32.269531 15.546875 -32.390625 15.234375 -32.390625 L 12.09375 -32.390625 C 11.78125 -32.390625 11.515625 -32.269531 11.296875 -32.03125 C 11.085938 -31.800781 10.984375 -31.535156 10.984375 -31.234375 L 10.984375 0 L 2.84375 0 L 2.84375 -30.53125 C 2.84375 -35.644531 5.25 -38.203125 10.0625 -38.203125 L 17.265625 -38.203125 C 22.078125 -38.203125 24.484375 -35.644531 24.484375 -30.53125 Z M 24.484375 0 "/></g></g></g><g fill="#e7dede" fill-opacity="1"><g transform="translate(323.914218, 173.213931)"><g><path d="M 17.859375 -37.625 C 22.660156 -37.625 25.0625 -35.066406 25.0625 -29.953125 L 25.0625 -7.671875 C 25.0625 -2.554688 22.660156 0 17.859375 0 L 2.90625 0 L 2.90625 -37.625 Z M 16.921875 -6.75 L 16.921875 -30.9375 C 16.921875 -31.25 16.8125 -31.519531 16.59375 -31.75 C 16.382812 -31.988281 16.125 -32.109375 15.8125 -32.109375 L 11.046875 -32.109375 L 11.046875 -5.578125 L 15.8125 -5.578125 C 16.125 -5.578125 16.382812 -5.691406 16.59375 -5.921875 C 16.8125 -6.160156 16.921875 -6.4375 16.921875 -6.75 Z M 16.921875 -6.75 "/></g></g></g></svg>